<?xml version="1.0" encoding="UTF-8"?>
<svg id="Layer_1" data-name="Layer 1" xmlns="http://www.w3.org/2000/svg" viewBox="0 0 1328.88 1992.2">
  <defs>
    <style>
      .cls-1 {
        fill: #fff;
        stroke-width: 0px;
      }
    </style>
  </defs>
  <path class="cls-1" d="M409.91,1652.88c-25.96.69-46.98,9.17-66.99,20.59-31.39,17.92-58.28,41.5-83.37,67.25-51.59,52.94-93.78,112.93-131.59,176.16-9.31,15.57-17.87,31.58-27.08,47.22-2.12,3.6-5.23,6.74-8.34,9.59-3.3,3.02-7.07,5.55-10.76,8.12-17.1,11.89-35.31,13.91-53.89,4.38-18.91-9.69-28.23-25.77-27.87-47.1.17-9.92,3.88-18.75,9.27-27.03,29.81-45.77,60.07-91.26,89.15-137.49,45.79-72.8,77.58-151.21,90.24-236.66,20.56-138.71-2.95-269.52-71.86-391.86-17.7-31.42-38.73-60.55-61.45-88.57-9.5-11.71-17.98-24.47-25.39-37.61-9.74-17.28-8.13-34.95,2.66-51.55,19.51-30.02,39.19-59.94,58.81-89.89C267.98,608.84,444.54,339.26,621,69.62c10.1-15.43,23.56-24.89,42.18-25.47,18.77-.58,33.54,7.43,43.87,23.11,19.71,29.89,39.27,59.88,58.89,89.84,29.38,44.86,58.39,89.97,88.38,134.42,7.62,11.3,17.33,21.73,27.85,30.42,19.76,16.3,43.04,16.92,66.84,10.56,25.69-6.87,48.01-20.37,69.06-36.12,39.39-29.48,72.38-65.36,103.03-103.56,31.22-38.92,58.52-80.53,84.57-123.01,9.75-15.89,20.03-31.47,30.33-47.01,12.8-19.31,35.82-27.31,57.33-20.28,22.15,7.25,36.46,27.57,35.5,50.6-.38,9.01-3.12,17.35-8.08,24.88-27.74,42.14-55,84.62-83.41,126.3-51.56,75.65-85.74,158.27-99.1,248.8-23.64,160.2,10.48,307.4,102.91,440.65,10.62,15.3,23,29.37,34.2,44.28,8.29,11.03,16.82,22.01,23.76,33.88,10.34,17.65,9.12,35.73-2.02,52.87-19.24,29.6-38.65,59.1-57.99,88.63-176.91,270.15-353.9,540.23-530.57,810.53-17.38,26.6-50.99,32.68-74.07,14.58-4.5-3.53-8.57-8.03-11.72-12.82-48.05-73.05-95.93-146.2-143.78-219.38-2.72-4.17-4.81-8.75-7.26-13.1-10.95-19.37-25.91-33.78-48.42-38.54-5.18-1.1-10.53-1.43-13.39-1.8ZM788.04,450.58c-1.74-18.89-2.81-37.86-5.4-56.63-2.83-20.56-8.88-40.31-20.12-58.08-9.36-14.8-21.73-26.1-38.69-31.54-18.22-5.84-36.23-3.57-53.97,2.28-28.3,9.33-52.53,25.69-75.32,44.35-40.88,33.47-75.3,73.03-106.78,115.2-63.08,84.52-113.14,176.45-153.94,273.5-40.99,97.52-72.47,197.75-83.37,303.55-3.56,34.57-4.16,69.19,1.55,103.65,3.48,20.99,9.2,41.28,20.95,59.36,17.6,27.07,44.64,38.38,76.29,32.26,23.33-4.51,43.98-15.06,63.51-28.05,37.93-25.25,69.74-57.21,99.17-91.65,52.52-61.45,95.74-129.16,133.5-200.43,55.08-103.99,98.23-212.55,123.95-327.65,10.3-46.09,17.02-92.67,18.67-140.12ZM1083.04,901.58c-1.74-18.89-2.81-37.86-5.4-56.63-2.84-20.56-8.88-40.31-20.12-58.08-9.36-14.8-21.73-26.1-38.69-31.53-18.22-5.84-36.23-3.56-53.97,2.29-28.3,9.33-52.53,25.7-75.32,44.35-40.88,33.47-75.3,73.03-106.77,115.2-63.08,84.52-113.14,176.45-153.93,273.5-40.99,97.52-72.47,197.75-83.37,303.56-3.56,34.57-4.15,69.19,1.55,103.64,3.48,20.99,9.2,41.28,20.95,59.36,17.6,27.07,44.64,38.38,76.29,32.25,23.33-4.52,43.98-15.06,63.51-28.06,37.93-25.25,69.74-57.22,99.17-91.65,52.52-61.45,95.74-129.16,133.5-200.43,55.08-103.99,98.22-212.55,123.95-327.65,10.3-46.09,17.02-92.67,18.66-140.12Z"/>
</svg>