<?xml version="1.0" encoding="UTF-8"?>
<svg id="Layer_1" data-name="Layer 1" xmlns="http://www.w3.org/2000/svg" viewBox="0 0 1541.11 1983.05">
  <defs>
    <style>
      .cls-1 {
        fill: #fff;
        stroke-width: 0px;
      }
    </style>
  </defs>
  <path class="cls-1" d="M1095.94,454.55c4.76-6.57,9.05-12.47,13.32-18.39,94.29-130.62,188.59-261.23,282.85-391.87,7.41-10.27,14.42-20.78,24.73-28.58,25.79-19.52,61.35-21.01,88.62-3.51,27.68,17.77,40.95,50.43,33.7,82.93-6.84,30.66-33.12,55.05-64.52,58.88-28.15,3.44-49.5,16.58-66.15,39.79-84.37,117.64-169.28,234.9-254.1,352.21-2.38,3.29-2.57,5.55-.49,9.13,58.74,101.43,117.31,202.96,175.99,304.43,19.64,33.97,29.52,70.76,32.36,109.66,3.02,41.4-1.36,81.89-16.17,120.83-4.42,11.61-9.8,23.01-16.01,33.77-150.92,261.61-302.01,523.13-453.06,784.67-10.26,17.76-22.5,33.84-38.74,46.6-43.52,34.2-99.94,31.5-140.35-6.56-12.37-11.65-22.36-25.06-30.83-39.72-72.34-125.3-144.72-250.58-217.09-375.87-1.06-1.84-2.19-3.65-3.51-5.84-1.21,1.57-2.24,2.85-3.2,4.17-98.68,136.69-197.37,273.37-295.98,410.11-6.84,9.48-13.57,18.94-23.05,26.09-25.38,19.15-60.2,20.8-87.35,4.02-27.34-16.9-41.65-49.33-35.47-80.41,6.26-31.56,30.97-56.22,62-61.7,6.38-1.13,12.98-1.25,19.24-2.79,17.59-4.35,32.11-13.83,42.81-28.47,33.9-46.41,67.65-92.92,101.32-139.49,53.79-74.38,107.45-148.86,161.28-223.2,2.44-3.36,2.41-5.63.38-9.14-58.39-100.86-116.62-201.82-174.98-302.71-19.74-34.12-29.64-71.06-32.45-110.13-2.97-41.24,1.4-81.55,16.14-120.34,4.35-11.46,9.62-22.73,15.74-33.35,151-261.76,302.17-523.42,453.3-785.11,10.17-17.61,22.27-33.58,38.3-46.33,42.75-33.99,97.89-32.23,138.89,4.39,13.45,12.01,24,26.25,32.97,41.8,71.85,124.43,143.74,248.84,215.62,373.26,1.16,2.01,2.34,4.02,3.95,6.77ZM1263.26,991.14c-.41-31.08-7.18-60.79-23.75-88.45-25.75-42.98-50.25-86.71-75.4-130.05-6.75-11.64-13.46-23.35-21.05-34.45-18.59-27.17-52.37-39.09-84.11-30.32-20.81,5.75-35.39,19.28-47.75,36.43-121.72,168.94-243.63,337.74-365.52,506.55-34.62,47.94-69.17,95.93-104.08,143.66-20.08,27.46-21.69,60.26-4.46,90,55.57,95.93,111.07,191.91,166.19,288.1,24.45,42.68,79.97,53.7,117.76,22.61,10.64-8.75,17.58-20.23,24.36-31.98,131.17-227.23,262.27-454.5,393.85-681.49,16.33-28.18,23.66-57.95,23.95-90.61ZM280.01,990.54c.29,32.35,7.3,62.31,24,90.29,28.83,48.32,56.48,97.35,84.66,146.05,3.25,5.61,6.44,11.29,10.19,16.56,15.44,21.67,36.59,33.27,63.21,33.46,28.55.21,50.05-13.12,66.52-36.05,56.08-78.06,112.38-155.96,168.64-233.9,101.11-140.06,202.26-280.1,303.4-420.14,14.41-19.95,19.9-41.83,14.5-66.13-2.65-11.93-9.15-22.01-15.14-32.4-53.68-92.99-107.3-186.02-160.87-279.08-23.81-41.37-78.3-51.91-115.75-22.32-11.11,8.78-18.34,20.45-25.29,32.49-131.27,227.37-262.46,454.8-394.13,681.95-16.24,28.02-23.57,57.63-23.93,89.22Z"/>
</svg>