<?xml version="1.0" encoding="UTF-8"?>
<svg id="Layer_1" data-name="Layer 1" xmlns="http://www.w3.org/2000/svg" viewBox="0 0 1246.18 1901.87">
  <defs>
    <style>
      .cls-1 {
        fill: #fff;
        stroke-width: 0px;
      }
    </style>
  </defs>
  <path class="cls-1" d="M179.91,1432.68c0-15.27.39-30.54-.1-45.79-.57-17.65-1.23-35.35-3.06-52.9-3.42-32.99-8.93-65.74-18.13-97.6-7.39-25.6-16.09-50.91-25.83-75.71-7.87-20.03-17.51-39.45-27.53-58.52-13.59-25.88-29.5-50.38-46.67-74.1-10.61-14.66-20.71-29.73-30.17-45.15-11.87-19.35-13.23-40.19-3-60.37,9.04-17.83,19.63-34.95,30.47-51.79,24.56-38.14,49.73-75.87,74.57-113.82,18.68-28.53,37.15-57.19,55.86-85.69,23.91-36.42,47.99-72.73,71.97-109.11,13.47-20.43,26.91-40.89,40.37-61.33,21.27-32.3,42.62-64.54,63.8-96.9,16.71-25.52,33.22-51.18,49.83-76.76,17.33-26.68,34.64-53.37,52.02-80.01,18.28-28.01,36.62-55.98,54.95-83.96,18.51-28.25,36.89-56.6,55.66-84.68,5.89-8.82,12.18-17.6,19.56-25.14,8.15-8.33,17.8-14.96,30.6-14.38,9.34.42,16.88,4.53,23.7,10.42,15.22,13.14,25.21,30.35,36.13,46.79,18.24,27.45,36.24,55.07,54.28,82.65,13.94,21.3,27.52,42.83,41.82,63.89,6.06,8.92,13.44,16.96,20.39,25.25,12.31,14.69,27.34,25.93,44.82,33.66,11.25,4.98,23.13,7.81,35.53,8.46,33.05,1.72,62.23-9.97,89.3-27.06,16.81-10.62,32.68-22.96,47.87-35.82,15.29-12.95,29.91-26.86,43.59-41.51,26.11-27.96,50.9-57.12,72.42-88.84,17.22-25.39,34.1-51.01,50.94-76.65,7.51-11.43,15-22.87,25.43-31.87,6.81-5.88,14.44-10.39,24.12-7.28,6,1.93,10.08,7.75,10.58,14.05.73,9.31-1.01,18.18-5.75,26.03-12.8,21.23-25.87,42.29-39.19,63.2-16.48,25.87-34.05,51.08-49.76,77.4-14.63,24.53-26.7,50.46-37.79,76.88-13.47,32.08-24.13,65.01-32.1,98.78-3.93,16.65-6.83,33.58-9.34,50.51-2.31,15.57-4.1,31.27-4.99,46.98-1.26,22.34-2.18,44.74-1.91,67.1.21,17.42,1.73,34.9,3.94,52.2,4.63,36.26,11.67,72.05,22.37,107.1,7.72,25.28,16.69,50.04,27.54,74.12,16.29,36.12,35.67,70.53,58.16,103.13,12.52,18.15,26.03,35.62,38.39,53.88,8.04,11.88,13.71,25.07,13.3,39.87-.38,13.84-4.79,26.76-12.1,38.32-20.93,33.09-42.29,65.91-63.54,98.79-12.31,19.04-24.69,38.04-37.12,57-19.24,29.34-38.57,58.61-57.81,87.95-14.41,21.96-28.65,44.03-43.11,65.96-22.19,33.65-44.55,67.19-66.74,100.83-15.18,23.02-30.2,46.14-45.28,69.22-22.66,34.7-45.35,69.38-67.95,104.11-12.72,19.55-25.22,39.25-37.98,58.77-22.94,35.1-46.03,70.11-69.01,105.19-12.43,18.97-24.64,38.07-37.17,56.97-9.55,14.42-18.89,29.03-29.36,42.76-7.89,10.35-16.93,19.96-30.73,23.1-11.99,2.73-21.95-1.1-30.88-8.53-16.14-13.42-26.32-31.54-37.7-48.67-18.78-28.27-37.45-56.61-55.99-85.04-15.24-23.37-29.99-47.06-45.37-70.33-12.16-18.39-26.63-34.81-45.64-46.49-12.04-7.4-24.97-12.41-39.25-14.22-26.67-3.37-51.32,2.74-75.2,14.06-23.09,10.94-44.17,24.93-63.18,41.87-16.81,14.99-33.48,30.21-49.18,46.34-13.29,13.65-25.14,28.71-37.55,43.22-22.47,26.27-42.29,54.52-61.25,83.36-13.26,20.17-25.75,40.85-38.95,61.06-6.08,9.31-13.75,17.24-24.21,21.9-6.35,2.83-12.81,3.07-18.46-1.05-6.8-4.96-9.11-12.18-7.87-20.48,2.68-17.83,12.79-32.22,22.02-46.96,21.47-34.28,43.43-68.27,64.63-102.72,17.31-28.14,31.61-57.84,44.46-88.31,13.52-32.05,24.11-65.01,32.13-98.77,3.95-16.64,6.74-33.6,9.24-50.53,2.28-15.41,3.45-30.97,5.13-46.47.43-3.92.93-7.84,1.4-11.76.2-.02.39-.04.59-.06ZM297.4,1214.49c4.92-.47,9.83-.97,14.75-1.42,13.97-1.26,27.16-5.53,39.86-11.11,34.83-15.31,64.44-38.35,91.63-64.42,16.36-15.69,31.6-32.59,46.65-49.57,12.61-14.23,25.04-28.77,36.08-44.23,19.62-27.48,38.84-55.3,56.88-83.83,16.03-25.36,31.01-51.45,45.03-77.97,25.04-47.36,47.74-95.89,67.08-145.89,9.09-23.52,17.73-47.23,26-71.05,5.38-15.51,10.18-31.26,14.45-47.12,6.72-24.98,13.72-49.95,18.84-75.27,5.21-25.75,8.84-51.87,12.14-77.95,2.29-18.11,3.01-36.44,4.06-54.69.32-5.56-.54-11.2-.9-16.8-.64-9.7-1.19-19.41-2.01-29.1-1.63-19.45-5.93-38.31-12.97-56.54-8.71-22.57-21.79-41.86-42.12-55.49-21.74-14.58-45.7-19.22-71.68-16.19-22.95,2.68-43.43,11.77-63.14,22.77-24.29,13.56-45.71,31.23-66.04,50.05-12.3,11.39-23.84,23.65-35.13,36.06-12.72,14-25.24,28.23-36.99,43.05-13.81,17.41-27.41,35.07-39.8,53.49-16.1,23.94-31.73,48.28-46.08,73.3-16.88,29.44-32.78,59.5-47.96,89.86-13.13,26.25-25.25,53.06-36.73,80.08-10.56,24.85-20.21,50.12-29.28,75.56-8.25,23.13-15.78,46.56-22.53,70.17-7.19,25.17-14.04,50.52-19.27,76.16-5.25,25.74-8.78,51.87-12.16,77.95-2.22,17.12-3.45,34.43-3.95,51.69-.37,13.01,1.15,26.06,1.78,39.1.8,16.41,3.68,32.48,8.06,48.26,5.65,20.36,14.31,39.37,28.31,55.35,20.31,23.19,45.93,35.46,77.13,35.73ZM947.37,685.91c-3.02.23-9,.32-14.85,1.22-21.29,3.27-40.71,11.87-59.22,22.34-24.81,14.02-46.68,32.13-67.5,51.42-10.58,9.81-20.5,20.39-30.17,31.12-12.89,14.3-25.64,28.76-37.7,43.75-12.5,15.53-24.53,31.47-35.97,47.79-13.02,18.56-25.78,37.37-37.53,56.75-15.73,25.94-30.85,52.28-45.34,78.94-10.54,19.39-19.88,39.45-29.3,59.42-9.46,20.06-18.88,40.17-27.37,60.65-17.58,42.42-33.64,85.45-46.36,129.59-8.11,28.12-15.05,56.59-22,85.03-3.32,13.6-5.8,27.44-8.01,41.28-2.15,13.42-3.79,26.93-5.07,40.46-1.65,17.54-2.94,35.12-3.93,52.71-.37,6.56.48,13.2.9,19.8.59,9.2,1.23,18.41,1.98,27.6,1.6,19.47,5.9,38.29,12.93,56.56,11.23,29.19,29.53,51.79,58.69,64.69,19.11,8.46,39.1,9.86,59.39,6.87,20.94-3.09,40.07-11.72,58.3-22.02,24.51-13.85,46.33-31.5,66.84-50.65,12.25-11.44,23.83-23.66,35.11-36.07,12.61-13.87,25.05-27.96,36.64-42.69,14.55-18.48,28.77-37.29,41.99-56.73,14.48-21.3,28.24-43.14,41.23-65.38,15.24-26.08,29.73-52.61,43.75-79.37,9.47-18.07,17.78-36.75,26.2-55.35,9.21-20.34,18.82-40.57,26.68-61.44,13.06-34.7,25.26-69.74,37.02-104.91,6.29-18.8,11.35-38.05,16.15-57.3,7.61-30.54,14.52-61.25,18.14-92.59,2.01-17.43,4.6-34.82,5.77-52.31.96-14.31.11-28.73.22-43.09.14-18.5-2.24-36.69-5.98-54.76-5.18-25-14.47-48.25-31.24-67.68-20.24-23.47-46.1-35.79-80.4-35.66Z"/>
</svg>