<?xml version="1.0" encoding="UTF-8"?>
<svg id="Layer_1" data-name="Layer 1" xmlns="http://www.w3.org/2000/svg" viewBox="0 0 1267.22 1925.2">
  <defs>
    <style>
      .cls-1 {
        fill: #fff;
        stroke-width: 0px;
      }
    </style>
  </defs>
  <path class="cls-1" d="M633.96,41.91c12.2-.73,21.74,5.07,30.36,12.72,14.3,12.7,24.03,29.04,34.51,44.69,17.44,26.02,34.52,52.28,51.68,78.49,11.89,18.16,23.52,36.48,35.51,54.56,12.16,18.34,24.63,36.5,40.8,51.66,15.84,14.86,34.2,25.22,55.79,28.76,23.37,3.84,45.63-1.09,67.15-10.13,20.02-8.41,38.02-20.28,55.2-33.31,10.6-8.04,20.41-17.17,30.29-26.12,8.49-7.68,16.98-15.43,24.74-23.82,12.31-13.3,24.08-27.1,35.96-40.78,27.3-31.45,50.56-65.86,73.49-100.5,11.26-17,22.16-34.25,33.82-50.98,7.75-11.11,16.96-20.87,30.47-25.49,9.83-3.36,18.77-1.68,25.76,5.37,6.9,6.96,8.81,16.11,7.2,25.98-2.97,18.09-12.6,33.11-22.25,47.99-19.35,29.85-39.85,58.97-58.62,89.17-14.63,23.54-28.07,47.91-40.75,72.56-13.72,26.67-24.83,54.63-33.29,83.41-7.06,24.02-12.99,48.42-18.31,72.89-3.19,14.66-4.58,29.76-6.19,44.72-1.45,13.42-2.44,26.91-3,40.4-.7,16.75-1.39,33.55-.9,50.3.45,15.43,2.47,30.81,3.8,46.22,2.71,31.5,8.59,62.49,17.29,92.78,7.08,24.67,15.77,48.92,24.8,72.97,5.83,15.55,12.98,30.68,20.55,45.48,16.3,31.88,35.18,62.2,56.6,90.96,11.01,14.78,21.98,29.74,31.28,45.61,12.04,20.55,13.07,42.49,3.01,64.5-11.11,24.31-26.77,45.88-41.24,68.15-19.11,29.42-38.58,58.6-57.8,87.95-18.15,27.7-36.14,55.51-54.29,83.21-19.85,30.3-39.85,60.5-59.71,90.79-13.69,20.87-27.18,41.87-40.88,62.73-21.95,33.41-44.04,66.73-66,100.14-16.4,24.95-32.69,49.97-48.99,74.98-15.5,23.78-30.9,47.63-46.44,71.38-17.86,27.31-35.86,54.53-53.73,81.83-18.14,27.71-36.11,55.53-54.32,83.19-11.48,17.45-23.17,34.77-34.91,52.06-7.82,11.52-16.9,21.94-29.15,28.96-12.8,7.34-30.49,6.65-43.86-3.6-14.23-10.91-24.11-25.47-33.89-40.09-14.33-21.43-28.53-42.95-42.64-64.52-22.6-34.55-44.81-69.35-67.76-103.65-7.26-10.85-15.63-21.2-24.78-30.51-14.37-14.62-31.93-24.45-52.39-27.84-21.07-3.48-41.5.09-61.25,7.72-25.57,9.88-48.39,24.47-69.01,42.3-16.88,14.59-33.77,29.33-49.17,45.43-16.57,17.32-32.25,35.66-46.81,54.71-20.43,26.72-39.86,54.23-58.96,81.92-12.22,17.71-22.85,36.49-34.61,54.53-7.23,11.09-15.98,20.96-28.21,26.87-9.95,4.8-20.13,5.27-29.17-1.74-9.82-7.61-12.09-18.27-9.94-30.12,2.99-16.45,11.56-30.34,20.27-44.15,22.7-36.01,45.84-71.75,68.02-108.07,11.4-18.66,21.73-38.04,31.45-57.64,13.25-26.73,24.62-54.37,32.99-83.01,7.02-24.03,13.01-48.41,18.35-72.88,3.2-14.66,4.59-29.76,6.2-44.72,1.45-13.42,2.43-26.91,3-40.4.7-16.59,1.39-33.22.9-49.8-.46-15.6-2.43-31.15-3.79-46.72-2.74-31.32-8.52-62.15-17.21-92.3-6.7-23.26-14.46-46.29-23.01-68.94-6.56-17.36-14.53-34.26-22.87-50.86-16.46-32.74-36.29-63.42-57.92-93-9.53-13.03-18.89-26.32-26.79-40.36-11.85-21.08-12.62-43.16-2.45-65.51,10.94-24.06,26.48-45.29,40.72-67.32,18.42-28.51,37.3-56.71,55.9-85.1,11.71-17.87,23.21-35.89,34.93-53.75,19.33-29.47,38.8-58.85,58.14-88.32,13.79-21,27.4-42.12,41.2-63.12,22.59-34.36,45.3-68.63,67.89-103,12.45-18.95,24.7-38.04,37.11-57.01,20.99-32.09,42.07-64.12,63.04-96.22,16.06-24.58,31.95-49.28,48.03-73.85,18.58-28.4,37.31-56.7,55.93-85.08,17.54-26.73,34.78-53.66,52.65-80.17,7.07-10.5,15.18-20.37,25.6-27.96,7.42-5.4,15.4-9.26,24.93-8.62ZM959.8,705.72c-4.94.38-10.61.37-16.11,1.33-21.12,3.71-40.94,11.33-58.83,22.97-15.32,9.96-29.98,21-44.39,32.26-16.96,13.26-32.51,28.12-46.62,44.45-12.91,14.95-26.4,29.44-38.66,44.91-14.92,18.82-29.23,38.15-43.02,57.81-11.8,16.82-23.01,34.11-33.58,51.73-14.6,24.35-29.07,48.82-42.3,73.92-19.96,37.87-38.8,76.33-54.77,116.1-10.3,25.68-20.82,51.3-30.03,77.38-8.77,24.84-16.54,50.08-23.71,75.43-6.6,23.32-12.68,46.86-17.4,70.62-4.77,24.02-8.05,48.36-11.12,72.67-2.13,16.8-3.45,33.77-3.93,50.7-.37,13,.51,26.13,1.95,39.08,1.64,14.75,3.56,29.59,7.06,43.97,6.25,25.7,17.67,48.71,38.5,66.25,22.64,19.06,48.81,24.84,77.29,20.43,18.11-2.8,34.98-9.78,51.15-18.66,28.31-15.53,52.75-36.03,76.09-57.97,8.21-7.72,15.95-15.99,23.44-24.42,12.91-14.51,26.02-28.89,38.02-44.14,15.65-19.9,31.02-40.1,45.19-61.07,15.88-23.5,31.03-47.57,45.14-72.17,16.41-28.59,31.92-57.74,46.76-87.18,12.19-24.18,23.31-48.93,34-73.81,9.44-21.97,18.17-44.29,26.22-66.81,8.98-25.12,17.3-50.51,25.04-76.04,6.03-19.91,10.93-40.18,15.99-60.37,8.03-32.04,13.94-64.47,16.97-97.39,1.52-16.55,3.35-33.12,3.81-49.71.37-13.34-.5-26.8-1.95-40.08-1.61-14.75-3.6-29.58-7.05-43.98-5.97-24.86-17.23-46.98-36.68-64.52-17.68-15.94-38.37-23.09-62.48-23.69ZM308.26,1218.19c5.15-.4,11.18-.28,16.98-1.41,18.01-3.5,34.97-9.88,51.14-18.75,27.71-15.21,51.97-34.95,74.57-56.68,14.9-14.32,28.7-29.83,42.43-45.31,11.53-13.01,23.06-26.17,33.15-40.3,19.91-27.88,39.6-55.98,57.9-84.92,17.08-27.01,33.05-54.8,48.05-83.01,19.93-37.5,38.54-75.73,54.35-115.2,10.04-25.08,20.42-50.07,29.15-75.61,10.78-31.55,20.55-63.47,29.71-95.53,5.8-20.33,10.36-41.07,14.23-61.86,3.89-20.88,6.68-42,9.12-63.11,2-17.32,3.39-34.77,3.91-52.2.37-12.5-.53-25.13-1.94-37.58-1.68-14.74-3.51-29.6-7.08-43.97-6.37-25.63-17.68-48.72-38.57-66.22-22.68-19-48.84-24.76-77.32-20.33-18.11,2.82-34.98,9.8-51.15,18.67-27.56,15.13-51.84,34.62-74.18,56.36-17.41,16.93-33.44,35.31-49.65,53.44-9.62,10.76-19.07,21.78-27.39,33.54-19.14,27.03-38.34,54.08-56.01,82.07-17.06,27.02-33.05,54.8-48.01,83.05-20.18,38.11-39.14,76.89-55.2,116.97-10.05,25.07-20.14,50.16-29.24,75.59-14.03,39.24-26.35,79.04-35.43,119.78-2.8,12.55-6.34,24.97-8.48,37.63-3.53,20.96-6.63,42.01-9.07,63.12-2,17.32-3.39,34.77-3.91,52.2-.37,12.5.62,25.12,1.93,37.59,1.39,13.31,3.11,26.67,6.03,39.71,6,26.81,17.5,50.76,38.58,69.41,17.38,15.37,37.73,22.28,61.41,22.9Z"/>
</svg>