<?xml version="1.0" encoding="UTF-8"?>
<svg id="Layer_1" data-name="Layer 1" xmlns="http://www.w3.org/2000/svg" viewBox="0 0 1360.65 1984.74">
  <defs>
    <style>
      .cls-1 {
        fill: #fff;
        stroke-width: 0px;
      }
    </style>
  </defs>
  <path class="cls-1" d="M386.57,1609.39c-1.45,2.18-2.56,3.82-3.64,5.48-39.31,60.06-78.52,120.19-117.97,180.16-18.45,28.04-44.81,42.12-78.35,41.82-52.5-.47-94.22-48.7-87.77-100.8,1.84-14.86,6.98-28.31,15.15-40.78,53.84-82.2,107.6-164.45,161.51-246.61,2.25-3.42,2.27-5.68.02-9.11-86.04-131.19-171.95-262.46-257.94-393.68-23.43-35.75-23.4-71.25.02-107.01C212.87,640.7,408.14,342.55,603.3,44.32,621.98,15.76,647.75-.3,682.33,0c30.1.27,57.96,16.01,74.51,41.16,43.22,65.72,86.23,131.57,129.32,197.38,29.1,44.45,58.2,88.9,87.3,133.35,1,1.53,2.06,3.02,3.34,4.9,1.25-1.86,2.37-3.47,3.44-5.11,39.59-60.47,79.17-120.95,118.78-181.42,17.72-27.05,42.8-41.91,75.09-42.23,35.82-.35,63.45,15.89,80.74,47.12,17.17,31.01,15.54,62.58-3.44,92.44-23.14,36.4-47.12,72.27-70.74,108.36-31.01,47.38-61.98,94.78-93.11,142.09-2.07,3.15-2.01,5.17.03,8.29,85.71,130.7,171.29,261.48,256.97,392.2,21.43,32.69,21.44,74.97.02,107.66-195.68,298.69-391.28,597.43-586.9,896.16-17.86,27.27-43.2,42.19-76.09,42.39-30.68.18-59.26-15.65-76.13-41.27-41.93-63.67-83.59-127.53-125.36-191.32-29.93-45.7-59.86-91.4-89.79-137.09-1.09-1.67-2.2-3.32-3.75-5.67ZM386.02,1279.62c161.26-246.39,322.21-492.31,483.23-738.33-62.64-95.65-125.17-191.14-188-287.08-1.62,2.37-2.76,3.99-3.84,5.64-158.86,242.59-317.71,485.18-476.66,727.7-2.37,3.62-2.43,5.93-.03,9.58,60.61,92.31,121.07,184.71,181.57,277.09,1.07,1.63,2.21,3.21,3.73,5.4ZM977.45,706.52c-1.7,2.58-2.97,4.5-4.23,6.43-158.7,242.49-317.4,484.98-476.19,727.41-2.22,3.38-2.37,5.63-.08,9.11,60.43,92.03,120.72,184.14,181.04,276.24.95,1.46,2,2.85,3.25,4.61,1.29-1.89,2.25-3.22,3.15-4.6,159.14-243,318.27-486,477.49-728.94,2.14-3.26,2.28-5.38.07-8.74-41.92-63.73-83.68-127.57-125.47-191.38-19.52-29.81-39.04-59.63-59.02-90.13Z"/>
</svg>